<?xml version="1.0" encoding="UTF-8"?>
<svg xmlns="http://www.w3.org/2000/svg" viewBox="0 0 800 280" width="800" height="280" role="img" aria-label="5 GitHub stars">
  <rect width="800" height="280" rx="16" fill="#071018"/>
  <text x="56" y="28" fill="#e8f6ff" font-family="ui-sans-serif, system-ui, sans-serif" font-size="18" font-weight="700">GitHub stars</text>
  <text x="776" y="28" text-anchor="end" fill="#3ee0c8" font-family="ui-sans-serif, system-ui, sans-serif" font-size="18" font-weight="700">5</text>
  <line x1="56" y1="48" x2="56" y2="240" stroke="#1c2a38"/>
  <line x1="56" y1="240" x2="776" y2="240" stroke="#1c2a38"/>
  <path d="M56.0,240.0 L90.3,240.0 L124.6,240.0 L158.9,240.0 L193.1,240.0 L227.4,240.0 L261.7,201.6 L296.0,201.6 L330.3,201.6 L364.6,201.6 L398.9,163.2 L433.1,163.2 L467.4,163.2 L501.7,163.2 L536.0,163.2 L570.3,163.2 L604.6,163.2 L638.9,124.8 L673.1,86.4 L707.4,86.4 L741.7,86.4 L776.0,48.0" fill="none" stroke="#3ee0c8" stroke-width="3" stroke-linecap="round" stroke-linejoin="round"/>
  <circle cx="776.0" cy="48.0" r="5" fill="#7c6bff"/>
  <text x="56" y="266" fill="#9ab0c4" font-family="ui-sans-serif, system-ui, sans-serif" font-size="12">2026-08-31</text>
  <text x="776" y="266" text-anchor="end" fill="#9ab0c4" font-family="ui-sans-serif, system-ui, sans-serif" font-size="12">2026-09-21</text>
</svg>
